<svg xmlns="http://www.w3.org/2000/svg" width="300" height="300" version="1.1"><path fill="white" stroke="black" transform="translate(10,10)"></path><path fill="white" stroke="black" transform="translate(30,10)" d="M-1,0L0,1L1,0L0,-1Z"></path><path fill="white" stroke="black" transform="translate(50,10)" d="M-1,0L0,1L1,0L0,-1Z"></path><path fill="white" stroke="black" transform="translate(70,10)" d="M-1,0L0,1L1,0L0,-1Z"></path><path fill="white" stroke="black" transform="translate(90,10)" d="M-1,0L0,1L1,0L0,-1Z"></path><path fill="white" stroke="black" transform="translate(110,10)" d="M-1,0L0,1L1,0L0,-1Z"></path><path fill="white" stroke="black" transform="translate(130,10)" d="M4.51351666838205,0A4.51351666838205,4.51351666838205,0,1,1,-4.51351666838205,0A4.51351666838205,4.51351666838205,0,1,1,4.51351666838205,0"></path><path fill="white" stroke="black" transform="translate(150,10)"></path><path fill="white" stroke="black" transform="translate(170,10)"></path><path fill="white" stroke="black" transform="translate(190,10)"></path><path fill="white" stroke="black" transform="translate(210,10)"></path><path fill="white" stroke="black" transform="translate(230,10)"></path><path fill="white" stroke="black" transform="translate(250,10)"></path><path fill="white" stroke="black" transform="translate(270,10)"></path><path fill="white" stroke="black" transform="translate(290,10)"></path><path fill="white" stroke="black" transform="translate(10,30)" d="M-1,0L0,1L1,0L0,-1Z"></path><path fill="white" stroke="black" transform="translate(30,30)" d="M-1,0L0,1L1,0L0,-1Z"></path><path fill="white" stroke="black" transform="translate(50,30)" d="M-1,0L0,1L1,0L0,-1Z"></path><path fill="white" stroke="black" transform="translate(70,30)" d="M-1,0L0,1L1,0L0,-1Z"></path><path fill="white" stroke="black" transform="translate(90,30)" d="M-1,0L0,1L1,0L0,-1Z"></path><path fill="white" stroke="black" transform="translate(110,30)" d="M4.51351666838205,0A4.51351666838205,4.51351666838205,0,1,1,-4.51351666838205,0A4.51351666838205,4.51351666838205,0,1,1,4.51351666838205,0"></path><path fill="white" stroke="black" transform="translate(130,30)" d="M4.51351666838205,0A4.51351666838205,4.51351666838205,0,1,1,-4.51351666838205,0A4.51351666838205,4.51351666838205,0,1,1,4.51351666838205,0"></path><path fill="white" stroke="black" transform="translate(150,30)"></path><path fill="white" stroke="black" transform="translate(170,30)"></path><path fill="white" stroke="black" transform="translate(190,30)"></path><path fill="white" stroke="black" transform="translate(210,30)"></path><path fill="white" stroke="black" transform="translate(230,30)"></path><path fill="white" stroke="black" transform="translate(250,30)"></path><path fill="white" stroke="black" transform="translate(270,30)"></path><path fill="white" stroke="black" transform="translate(290,30)"></path><path fill="white" stroke="black" transform="translate(10,50)" d="M-1,0L0,1L1,0L0,-1Z"></path><path fill="white" stroke="black" transform="translate(30,50)" d="M-1,0L0,1L1,0L0,-1Z"></path><path fill="white" stroke="black" transform="translate(50,50)" d="M-1,0L0,1L1,0L0,-1Z"></path><path fill="white" stroke="black" transform="translate(70,50)" d="M-1,0L0,1L1,0L0,-1Z"></path><path fill="white" stroke="black" transform="translate(90,50)" d="M4.51351666838205,0A4.51351666838205,4.51351666838205,0,1,1,-4.51351666838205,0A4.51351666838205,4.51351666838205,0,1,1,4.51351666838205,0"></path><path fill="white" stroke="black" transform="translate(110,50)" d="M4.51351666838205,0A4.51351666838205,4.51351666838205,0,1,1,-4.51351666838205,0A4.51351666838205,4.51351666838205,0,1,1,4.51351666838205,0"></path><path fill="white" stroke="black" transform="translate(130,50)" d="M-3,-3L-3,3M-2,-3L-2,3M-1,-3L-1,3M0,-3L0,3M1,-3L1,3M2,-3L2,3M3,-3L3,3"></path><path fill="white" stroke="black" transform="translate(150,50)"></path><path fill="white" stroke="black" transform="translate(170,50)"></path><path fill="white" stroke="black" transform="translate(190,50)"></path><path fill="white" stroke="black" transform="translate(210,50)"></path><path fill="white" stroke="black" transform="translate(230,50)"></path><path fill="white" stroke="black" transform="translate(250,50)"></path><path fill="white" stroke="black" transform="translate(270,50)"></path><path fill="white" stroke="black" transform="translate(290,50)"></path><path fill="white" stroke="black" transform="translate(10,70)" d="M4.51351666838205,0A4.51351666838205,4.51351666838205,0,1,1,-4.51351666838205,0A4.51351666838205,4.51351666838205,0,1,1,4.51351666838205,0"></path><path fill="white" stroke="black" transform="translate(30,70)" d="M4.51351666838205,0A4.51351666838205,4.51351666838205,0,1,1,-4.51351666838205,0A4.51351666838205,4.51351666838205,0,1,1,4.51351666838205,0"></path><path fill="white" stroke="black" transform="translate(50,70)" d="M-1,0L0,1L1,0L0,-1Z"></path><path fill="white" stroke="black" transform="translate(70,70)" d="M-1,0L0,1L1,0L0,-1Z"></path><path fill="white" stroke="black" transform="translate(90,70)" d="M4.51351666838205,0A4.51351666838205,4.51351666838205,0,1,1,-4.51351666838205,0A4.51351666838205,4.51351666838205,0,1,1,4.51351666838205,0"></path><path fill="white" stroke="black" transform="translate(110,70)" d="M-3,-3L-3,3M-2,-3L-2,3M-1,-3L-1,3M0,-3L0,3M1,-3L1,3M2,-3L2,3M3,-3L3,3"></path><path fill="white" stroke="black" transform="translate(130,70)" d="M4.51351666838205,0A4.51351666838205,4.51351666838205,0,1,1,-4.51351666838205,0A4.51351666838205,4.51351666838205,0,1,1,4.51351666838205,0"></path><path fill="white" stroke="black" transform="translate(150,70)" d="M4.51351666838205,0A4.51351666838205,4.51351666838205,0,1,1,-4.51351666838205,0A4.51351666838205,4.51351666838205,0,1,1,4.51351666838205,0"></path><path fill="white" stroke="black" transform="translate(170,70)"></path><path fill="white" stroke="black" transform="translate(190,70)"></path><path fill="white" stroke="black" transform="translate(210,70)"></path><path fill="white" stroke="black" transform="translate(230,70)"></path><path fill="white" stroke="black" transform="translate(250,70)"></path><path fill="white" stroke="black" transform="translate(270,70)"></path><path fill="white" stroke="black" transform="translate(290,70)"></path><path fill="white" stroke="black" transform="translate(10,90)" d="M-3,-3L-3,3M-2,-3L-2,3M-1,-3L-1,3M0,-3L0,3M1,-3L1,3M2,-3L2,3M3,-3L3,3"></path><path fill="white" stroke="black" transform="translate(30,90)" d="M4.51351666838205,0A4.51351666838205,4.51351666838205,0,1,1,-4.51351666838205,0A4.51351666838205,4.51351666838205,0,1,1,4.51351666838205,0"></path><path fill="white" stroke="black" transform="translate(50,90)" d="M-1,0L0,1L1,0L0,-1Z"></path><path fill="white" stroke="black" transform="translate(70,90)" d="M-1,0L0,1L1,0L0,-1Z"></path><path fill="white" stroke="black" transform="translate(90,90)" d="M4.51351666838205,0A4.51351666838205,4.51351666838205,0,1,1,-4.51351666838205,0A4.51351666838205,4.51351666838205,0,1,1,4.51351666838205,0"></path><path fill="white" stroke="black" transform="translate(110,90)" d="M4.51351666838205,0A4.51351666838205,4.51351666838205,0,1,1,-4.51351666838205,0A4.51351666838205,4.51351666838205,0,1,1,4.51351666838205,0"></path><path fill="white" stroke="black" transform="translate(130,90)" d="M4.51351666838205,0A4.51351666838205,4.51351666838205,0,1,1,-4.51351666838205,0A4.51351666838205,4.51351666838205,0,1,1,4.51351666838205,0"></path><path fill="white" stroke="black" transform="translate(150,90)" d="M4.51351666838205,0A4.51351666838205,4.51351666838205,0,1,1,-4.51351666838205,0A4.51351666838205,4.51351666838205,0,1,1,4.51351666838205,0"></path><path fill="white" stroke="black" transform="translate(170,90)"></path><path fill="white" stroke="black" transform="translate(190,90)"></path><path fill="white" stroke="black" transform="translate(210,90)"></path><path fill="white" stroke="black" transform="translate(230,90)"></path><path fill="white" stroke="black" transform="translate(250,90)"></path><path fill="white" stroke="black" transform="translate(270,90)"></path><path fill="white" stroke="black" transform="translate(290,90)"></path><path fill="white" stroke="black" transform="translate(10,110)" d="M4.51351666838205,0A4.51351666838205,4.51351666838205,0,1,1,-4.51351666838205,0A4.51351666838205,4.51351666838205,0,1,1,4.51351666838205,0"></path><path fill="white" stroke="black" transform="translate(30,110)" d="M4.51351666838205,0A4.51351666838205,4.51351666838205,0,1,1,-4.51351666838205,0A4.51351666838205,4.51351666838205,0,1,1,4.51351666838205,0"></path><path fill="white" stroke="black" transform="translate(50,110)" d="M-1,0L0,1L1,0L0,-1Z"></path><path fill="white" stroke="black" transform="translate(70,110)" d="M-1,0L0,1L1,0L0,-1Z"></path><path fill="white" stroke="black" transform="translate(90,110)" d="M4.51351666838205,0A4.51351666838205,4.51351666838205,0,1,1,-4.51351666838205,0A4.51351666838205,4.51351666838205,0,1,1,4.51351666838205,0"></path><path fill="white" stroke="black" transform="translate(110,110)" d="M-3,-3L-3,3M-2,-3L-2,3M-1,-3L-1,3M0,-3L0,3M1,-3L1,3M2,-3L2,3M3,-3L3,3"></path><path fill="white" stroke="black" transform="translate(130,110)" d="M4.51351666838205,0A4.51351666838205,4.51351666838205,0,1,1,-4.51351666838205,0A4.51351666838205,4.51351666838205,0,1,1,4.51351666838205,0"></path><path fill="white" stroke="black" transform="translate(150,110)" d="M-3,-3L-3,3M-2,-3L-2,3M-1,-3L-1,3M0,-3L0,3M1,-3L1,3M2,-3L2,3M3,-3L3,3"></path><path fill="white" stroke="black" transform="translate(170,110)"></path><path fill="white" stroke="black" transform="translate(190,110)"></path><path fill="white" stroke="black" transform="translate(210,110)"></path><path fill="white" stroke="black" transform="translate(230,110)"></path><path fill="white" stroke="black" transform="translate(250,110)"></path><path fill="white" stroke="black" transform="translate(270,110)"></path><path fill="white" stroke="black" transform="translate(290,110)"></path><path fill="white" stroke="black" transform="translate(10,130)" d="M-1,0L0,1L1,0L0,-1Z"></path><path fill="white" stroke="black" transform="translate(30,130)" d="M-1,0L0,1L1,0L0,-1Z"></path><path fill="white" stroke="black" transform="translate(50,130)" d="M-1,0L0,1L1,0L0,-1Z"></path><path fill="white" stroke="black" transform="translate(70,130)" d="M-1,0L0,1L1,0L0,-1Z"></path><path fill="white" stroke="black" transform="translate(90,130)" d="M4.51351666838205,0A4.51351666838205,4.51351666838205,0,1,1,-4.51351666838205,0A4.51351666838205,4.51351666838205,0,1,1,4.51351666838205,0"></path><path fill="white" stroke="black" transform="translate(110,130)" d="M-3,-3L-3,3M-2,-3L-2,3M-1,-3L-1,3M0,-3L0,3M1,-3L1,3M2,-3L2,3M3,-3L3,3"></path><path fill="white" stroke="black" transform="translate(130,130)"></path><path fill="white" stroke="black" transform="translate(150,130)"></path><path fill="white" stroke="black" transform="translate(170,130)"></path><path fill="white" stroke="black" transform="translate(190,130)"></path><path fill="white" stroke="black" transform="translate(210,130)"></path><path fill="white" stroke="black" transform="translate(230,130)"></path><path fill="white" stroke="black" transform="translate(250,130)"></path><path fill="white" stroke="black" transform="translate(270,130)"></path><path fill="white" stroke="black" transform="translate(290,130)"></path><path fill="white" stroke="black" transform="translate(10,150)" d="M-1,0L0,1L1,0L0,-1Z"></path><path fill="white" stroke="black" transform="translate(30,150)" d="M-1,0L0,1L1,0L0,-1Z"></path><path fill="white" stroke="black" transform="translate(50,150)" d="M-1,0L0,1L1,0L0,-1Z"></path><path fill="white" stroke="black" transform="translate(70,150)" d="M-1,0L0,1L1,0L0,-1Z"></path><path fill="white" stroke="black" transform="translate(90,150)" d="M4.51351666838205,0A4.51351666838205,4.51351666838205,0,1,1,-4.51351666838205,0A4.51351666838205,4.51351666838205,0,1,1,4.51351666838205,0"></path><path fill="white" stroke="black" transform="translate(110,150)" d="M4.51351666838205,0A4.51351666838205,4.51351666838205,0,1,1,-4.51351666838205,0A4.51351666838205,4.51351666838205,0,1,1,4.51351666838205,0"></path><path fill="white" stroke="black" transform="translate(130,150)"></path><path fill="white" stroke="black" transform="translate(150,150)"></path><path fill="white" stroke="black" transform="translate(170,150)"></path><path fill="white" stroke="black" transform="translate(190,150)"></path><path fill="white" stroke="black" transform="translate(210,150)"></path><path fill="white" stroke="black" transform="translate(230,150)"></path><path fill="white" stroke="black" transform="translate(250,150)"></path><path fill="white" stroke="black" transform="translate(270,150)"></path><path fill="white" stroke="black" transform="translate(290,150)"></path><path fill="white" stroke="black" transform="translate(10,170)" d="M-1,0L0,1L1,0L0,-1Z"></path><path fill="white" stroke="black" transform="translate(30,170)" d="M-1,0L0,1L1,0L0,-1Z"></path><path fill="white" stroke="black" transform="translate(50,170)" d="M-1,0L0,1L1,0L0,-1Z"></path><path fill="white" stroke="black" transform="translate(70,170)" d="M-1,0L0,1L1,0L0,-1Z"></path><path fill="white" stroke="black" transform="translate(90,170)" d="M-1,0L0,1L1,0L0,-1Z"></path><path fill="white" stroke="black" transform="translate(110,170)" d="M4.51351666838205,0A4.51351666838205,4.51351666838205,0,1,1,-4.51351666838205,0A4.51351666838205,4.51351666838205,0,1,1,4.51351666838205,0"></path><path fill="white" stroke="black" transform="translate(130,170)"></path><path fill="white" stroke="black" transform="translate(150,170)"></path><path fill="white" stroke="black" transform="translate(170,170)"></path><path fill="white" stroke="black" transform="translate(190,170)"></path><path fill="white" stroke="black" transform="translate(210,170)"></path><path fill="white" stroke="black" transform="translate(230,170)"></path><path fill="white" stroke="black" transform="translate(250,170)"></path><path fill="white" stroke="black" transform="translate(270,170)"></path><path fill="white" stroke="black" transform="translate(290,170)"></path><path fill="white" stroke="black" transform="translate(10,190)" d="M-1,0L0,1L1,0L0,-1Z"></path><path fill="white" stroke="black" transform="translate(30,190)" d="M4.51351666838205,0A4.51351666838205,4.51351666838205,0,1,1,-4.51351666838205,0A4.51351666838205,4.51351666838205,0,1,1,4.51351666838205,0"></path><path fill="white" stroke="black" transform="translate(50,190)" d="M4.51351666838205,0A4.51351666838205,4.51351666838205,0,1,1,-4.51351666838205,0A4.51351666838205,4.51351666838205,0,1,1,4.51351666838205,0"></path><path fill="white" stroke="black" transform="translate(70,190)" d="M4.51351666838205,0A4.51351666838205,4.51351666838205,0,1,1,-4.51351666838205,0A4.51351666838205,4.51351666838205,0,1,1,4.51351666838205,0"></path><path fill="white" stroke="black" transform="translate(90,190)" d="M-1,0L0,1L1,0L0,-1Z"></path><path fill="white" stroke="black" transform="translate(110,190)" d="M4.51351666838205,0A4.51351666838205,4.51351666838205,0,1,1,-4.51351666838205,0A4.51351666838205,4.51351666838205,0,1,1,4.51351666838205,0"></path><path fill="white" stroke="black" transform="translate(130,190)"></path><path fill="white" stroke="black" transform="translate(150,190)"></path><path fill="white" stroke="black" transform="translate(170,190)"></path><path fill="white" stroke="black" transform="translate(190,190)"></path><path fill="white" stroke="black" transform="translate(210,190)"></path><path fill="white" stroke="black" transform="translate(230,190)"></path><path fill="white" stroke="black" transform="translate(250,190)"></path><path fill="white" stroke="black" transform="translate(270,190)"></path><path fill="white" stroke="black" transform="translate(290,190)"></path><path fill="white" stroke="black" transform="translate(10,210)" d="M-1,0L0,1L1,0L0,-1Z"></path><path fill="white" stroke="black" transform="translate(30,210)" d="M4.51351666838205,0A4.51351666838205,4.51351666838205,0,1,1,-4.51351666838205,0A4.51351666838205,4.51351666838205,0,1,1,4.51351666838205,0"></path><path fill="white" stroke="black" transform="translate(50,210)" d="M-3,-3L-3,3M-2,-3L-2,3M-1,-3L-1,3M0,-3L0,3M1,-3L1,3M2,-3L2,3M3,-3L3,3"></path><path fill="white" stroke="black" transform="translate(70,210)" d="M4.51351666838205,0A4.51351666838205,4.51351666838205,0,1,1,-4.51351666838205,0A4.51351666838205,4.51351666838205,0,1,1,4.51351666838205,0"></path><path fill="white" stroke="black" transform="translate(90,210)" d="M4.51351666838205,0A4.51351666838205,4.51351666838205,0,1,1,-4.51351666838205,0A4.51351666838205,4.51351666838205,0,1,1,4.51351666838205,0"></path><path fill="white" stroke="black" transform="translate(110,210)" d="M4.51351666838205,0A4.51351666838205,4.51351666838205,0,1,1,-4.51351666838205,0A4.51351666838205,4.51351666838205,0,1,1,4.51351666838205,0"></path><path fill="white" stroke="black" transform="translate(130,210)"></path><path fill="white" stroke="black" transform="translate(150,210)"></path><path fill="white" stroke="black" transform="translate(170,210)"></path><path fill="white" stroke="black" transform="translate(190,210)"></path><path fill="white" stroke="black" transform="translate(210,210)"></path><path fill="white" stroke="black" transform="translate(230,210)"></path><path fill="white" stroke="black" transform="translate(250,210)"></path><path fill="white" stroke="black" transform="translate(270,210)"></path><path fill="white" stroke="black" transform="translate(290,210)"></path><path fill="white" stroke="black" transform="translate(10,230)" d="M-1,0L0,1L1,0L0,-1Z"></path><path fill="white" stroke="black" transform="translate(30,230)" d="M4.51351666838205,0A4.51351666838205,4.51351666838205,0,1,1,-4.51351666838205,0A4.51351666838205,4.51351666838205,0,1,1,4.51351666838205,0"></path><path fill="white" stroke="black" transform="translate(50,230)" d="M4.51351666838205,0A4.51351666838205,4.51351666838205,0,1,1,-4.51351666838205,0A4.51351666838205,4.51351666838205,0,1,1,4.51351666838205,0"></path><path fill="white" stroke="black" transform="translate(70,230)" d="M4.51351666838205,0A4.51351666838205,4.51351666838205,0,1,1,-4.51351666838205,0A4.51351666838205,4.51351666838205,0,1,1,4.51351666838205,0"></path><path fill="white" stroke="black" transform="translate(90,230)"></path><path fill="white" stroke="black" transform="translate(110,230)"></path><path fill="white" stroke="black" transform="translate(130,230)"></path><path fill="white" stroke="black" transform="translate(150,230)"></path><path fill="white" stroke="black" transform="translate(170,230)"></path><path fill="white" stroke="black" transform="translate(190,230)"></path><path fill="white" stroke="black" transform="translate(210,230)"></path><path fill="white" stroke="black" transform="translate(230,230)"></path><path fill="white" stroke="black" transform="translate(250,230)"></path><path fill="white" stroke="black" transform="translate(270,230)"></path><path fill="white" stroke="black" transform="translate(290,230)"></path><path fill="white" stroke="black" transform="translate(10,250)" d="M-1,0L0,1L1,0L0,-1Z"></path><path fill="white" stroke="black" transform="translate(30,250)" d="M-1,0L0,1L1,0L0,-1Z"></path><path fill="white" stroke="black" transform="translate(50,250)" d="M4.51351666838205,0A4.51351666838205,4.51351666838205,0,1,1,-4.51351666838205,0A4.51351666838205,4.51351666838205,0,1,1,4.51351666838205,0"></path><path fill="white" stroke="black" transform="translate(70,250)"></path><path fill="white" stroke="black" transform="translate(90,250)"></path><path fill="white" stroke="black" transform="translate(110,250)"></path><path fill="white" stroke="black" transform="translate(130,250)"></path><path fill="white" stroke="black" transform="translate(150,250)"></path><path fill="white" stroke="black" transform="translate(170,250)"></path><path fill="white" stroke="black" transform="translate(190,250)"></path><path fill="white" stroke="black" transform="translate(210,250)"></path><path fill="white" stroke="black" transform="translate(230,250)"></path><path fill="white" stroke="black" transform="translate(250,250)"></path><path fill="white" stroke="black" transform="translate(270,250)"></path><path fill="white" stroke="black" transform="translate(290,250)"></path><path fill="white" stroke="black" transform="translate(10,270)" d="M4.51351666838205,0A4.51351666838205,4.51351666838205,0,1,1,-4.51351666838205,0A4.51351666838205,4.51351666838205,0,1,1,4.51351666838205,0"></path><path fill="white" stroke="black" transform="translate(30,270)" d="M4.51351666838205,0A4.51351666838205,4.51351666838205,0,1,1,-4.51351666838205,0A4.51351666838205,4.51351666838205,0,1,1,4.51351666838205,0"></path><path fill="white" stroke="black" transform="translate(50,270)" d="M4.51351666838205,0A4.51351666838205,4.51351666838205,0,1,1,-4.51351666838205,0A4.51351666838205,4.51351666838205,0,1,1,4.51351666838205,0"></path><path fill="white" stroke="black" transform="translate(70,270)"></path><path fill="white" stroke="black" transform="translate(90,270)"></path><path fill="white" stroke="black" transform="translate(110,270)"></path><path fill="white" stroke="black" transform="translate(130,270)"></path><path fill="white" stroke="black" transform="translate(150,270)"></path><path fill="white" stroke="black" transform="translate(170,270)"></path><path fill="white" stroke="black" transform="translate(190,270)"></path><path fill="white" stroke="black" transform="translate(210,270)"></path><path fill="white" stroke="black" transform="translate(230,270)"></path><path fill="white" stroke="black" transform="translate(250,270)"></path><path fill="white" stroke="black" transform="translate(270,270)"></path><path fill="white" stroke="black" transform="translate(290,270)"></path><path fill="white" stroke="black" transform="translate(10,290)"></path><path fill="white" stroke="black" transform="translate(30,290)"></path><path fill="white" stroke="black" transform="translate(50,290)"></path><path fill="white" stroke="black" transform="translate(70,290)"></path><path fill="white" stroke="black" transform="translate(90,290)"></path><path fill="white" stroke="black" transform="translate(110,290)"></path><path fill="white" stroke="black" transform="translate(130,290)"></path><path fill="white" stroke="black" transform="translate(150,290)"></path><path fill="white" stroke="black" transform="translate(170,290)"></path><path fill="white" stroke="black" transform="translate(190,290)"></path><path fill="white" stroke="black" transform="translate(210,290)"></path><path fill="white" stroke="black" transform="translate(230,290)"></path><path fill="white" stroke="black" transform="translate(250,290)"></path><path fill="white" stroke="black" transform="translate(270,290)"></path><path fill="white" stroke="black" transform="translate(290,290)"></path><rect class="hoverBox" opacity="0" width="20" height="20" x="0" y="0"></rect><rect class="hoverBox" opacity="0" width="20" height="20" x="20" y="0"></rect><rect class="hoverBox" opacity="0" width="20" height="20" x="40" y="0"></rect><rect class="hoverBox" opacity="0" width="20" height="20" x="60" y="0"></rect><rect class="hoverBox" opacity="0" width="20" height="20" x="80" y="0"></rect><rect class="hoverBox" opacity="0" width="20" height="20" x="100" y="0"></rect><rect class="hoverBox" opacity="0" width="20" height="20" x="120" y="0"></rect><rect class="hoverBox" opacity="0" width="20" height="20" x="140" y="0"></rect><rect class="hoverBox" opacity="0" width="20" height="20" x="160" y="0"></rect><rect class="hoverBox" opacity="0" width="20" height="20" x="180" y="0"></rect><rect class="hoverBox" opacity="0" width="20" height="20" x="200" y="0"></rect><rect class="hoverBox" opacity="0" width="20" height="20" x="220" y="0"></rect><rect class="hoverBox" opacity="0" width="20" height="20" x="240" y="0"></rect><rect class="hoverBox" opacity="0" width="20" height="20" x="260" y="0"></rect><rect class="hoverBox" opacity="0" width="20" height="20" x="280" y="0"></rect><rect class="hoverBox" opacity="0" width="20" height="20" x="0" y="20"></rect><rect class="hoverBox" opacity="0" width="20" height="20" x="20" y="20"></rect><rect class="hoverBox" opacity="0" width="20" height="20" x="40" y="20"></rect><rect class="hoverBox" opacity="0" width="20" height="20" x="60" y="20"></rect><rect class="hoverBox" opacity="0" width="20" height="20" x="80" y="20"></rect><rect class="hoverBox" opacity="0" width="20" height="20" x="100" y="20"></rect><rect class="hoverBox" opacity="0" width="20" height="20" x="120" y="20"></rect><rect class="hoverBox" opacity="0" width="20" height="20" x="140" y="20"></rect><rect class="hoverBox" opacity="0" width="20" height="20" x="160" y="20"></rect><rect class="hoverBox" opacity="0" width="20" height="20" x="180" y="20"></rect><rect class="hoverBox" opacity="0" width="20" height="20" x="200" y="20"></rect><rect class="hoverBox" opacity="0" width="20" height="20" x="220" y="20"></rect><rect class="hoverBox" opacity="0" width="20" height="20" x="240" y="20"></rect><rect class="hoverBox" opacity="0" width="20" height="20" x="260" y="20"></rect><rect class="hoverBox" opacity="0" width="20" height="20" x="280" y="20"></rect><rect class="hoverBox" opacity="0" width="20" height="20" x="0" y="40"></rect><rect class="hoverBox" opacity="0" width="20" height="20" x="20" y="40"></rect><rect class="hoverBox" opacity="0" width="20" height="20" x="40" y="40"></rect><rect class="hoverBox" opacity="0" width="20" height="20" x="60" y="40"></rect><rect class="hoverBox" opacity="0" width="20" height="20" x="80" y="40"></rect><rect class="hoverBox" opacity="0" width="20" height="20" x="100" y="40"></rect><rect class="hoverBox" opacity="0" width="20" height="20" x="120" y="40"></rect><rect class="hoverBox" opacity="0" width="20" height="20" x="140" y="40"></rect><rect class="hoverBox" opacity="0" width="20" height="20" x="160" y="40"></rect><rect class="hoverBox" opacity="0" width="20" height="20" x="180" y="40"></rect><rect class="hoverBox" opacity="0" width="20" height="20" x="200" y="40"></rect><rect class="hoverBox" opacity="0" width="20" height="20" x="220" y="40"></rect><rect class="hoverBox" opacity="0" width="20" height="20" x="240" y="40"></rect><rect class="hoverBox" opacity="0" width="20" height="20" x="260" y="40"></rect><rect class="hoverBox" opacity="0" width="20" height="20" x="280" y="40"></rect><rect class="hoverBox" opacity="0" width="20" height="20" x="0" y="60"></rect><rect class="hoverBox" opacity="0" width="20" height="20" x="20" y="60"></rect><rect class="hoverBox" opacity="0" width="20" height="20" x="40" y="60"></rect><rect class="hoverBox" opacity="0" width="20" height="20" x="60" y="60"></rect><rect class="hoverBox" opacity="0" width="20" height="20" x="80" y="60"></rect><rect class="hoverBox" opacity="0" width="20" height="20" x="100" y="60"></rect><rect class="hoverBox" opacity="0" width="20" height="20" x="120" y="60"></rect><rect class="hoverBox" opacity="0" width="20" height="20" x="140" y="60"></rect><rect class="hoverBox" opacity="0" width="20" height="20" x="160" y="60"></rect><rect class="hoverBox" opacity="0" width="20" height="20" x="180" y="60"></rect><rect class="hoverBox" opacity="0" width="20" height="20" x="200" y="60"></rect><rect class="hoverBox" opacity="0" width="20" height="20" x="220" y="60"></rect><rect class="hoverBox" opacity="0" width="20" height="20" x="240" y="60"></rect><rect class="hoverBox" opacity="0" width="20" height="20" x="260" y="60"></rect><rect class="hoverBox" opacity="0" width="20" height="20" x="280" y="60"></rect><rect class="hoverBox" opacity="0" width="20" height="20" x="0" y="80"></rect><rect class="hoverBox" opacity="0" width="20" height="20" x="20" y="80"></rect><rect class="hoverBox" opacity="0" width="20" height="20" x="40" y="80"></rect><rect class="hoverBox" opacity="0" width="20" height="20" x="60" y="80"></rect><rect class="hoverBox" opacity="0" width="20" height="20" x="80" y="80"></rect><rect class="hoverBox" opacity="0" width="20" height="20" x="100" y="80"></rect><rect class="hoverBox" opacity="0" width="20" height="20" x="120" y="80"></rect><rect class="hoverBox" opacity="0" width="20" height="20" x="140" y="80"></rect><rect class="hoverBox" opacity="0" width="20" height="20" x="160" y="80"></rect><rect class="hoverBox" opacity="0" width="20" height="20" x="180" y="80"></rect><rect class="hoverBox" opacity="0" width="20" height="20" x="200" y="80"></rect><rect class="hoverBox" opacity="0" width="20" height="20" x="220" y="80"></rect><rect class="hoverBox" opacity="0" width="20" height="20" x="240" y="80"></rect><rect class="hoverBox" opacity="0" width="20" height="20" x="260" y="80"></rect><rect class="hoverBox" opacity="0" width="20" height="20" x="280" y="80"></rect><rect class="hoverBox" opacity="0" width="20" height="20" x="0" y="100"></rect><rect class="hoverBox" opacity="0" width="20" height="20" x="20" y="100"></rect><rect class="hoverBox" opacity="0" width="20" height="20" x="40" y="100"></rect><rect class="hoverBox" opacity="0" width="20" height="20" x="60" y="100"></rect><rect class="hoverBox" opacity="0" width="20" height="20" x="80" y="100"></rect><rect class="hoverBox" opacity="0" width="20" height="20" x="100" y="100"></rect><rect class="hoverBox" opacity="0" width="20" height="20" x="120" y="100"></rect><rect class="hoverBox" opacity="0" width="20" height="20" x="140" y="100"></rect><rect class="hoverBox" opacity="0" width="20" height="20" x="160" y="100"></rect><rect class="hoverBox" opacity="0" width="20" height="20" x="180" y="100"></rect><rect class="hoverBox" opacity="0" width="20" height="20" x="200" y="100"></rect><rect class="hoverBox" opacity="0" width="20" height="20" x="220" y="100"></rect><rect class="hoverBox" opacity="0" width="20" height="20" x="240" y="100"></rect><rect class="hoverBox" opacity="0" width="20" height="20" x="260" y="100"></rect><rect class="hoverBox" opacity="0" width="20" height="20" x="280" y="100"></rect><rect class="hoverBox" opacity="0" width="20" height="20" x="0" y="120"></rect><rect class="hoverBox" opacity="0" width="20" height="20" x="20" y="120"></rect><rect class="hoverBox" opacity="0" width="20" height="20" x="40" y="120"></rect><rect class="hoverBox" opacity="0" width="20" height="20" x="60" y="120"></rect><rect class="hoverBox" opacity="0" width="20" height="20" x="80" y="120"></rect><rect class="hoverBox" opacity="0" width="20" height="20" x="100" y="120"></rect><rect class="hoverBox" opacity="0" width="20" height="20" x="120" y="120"></rect><rect class="hoverBox" opacity="0" width="20" height="20" x="140" y="120"></rect><rect class="hoverBox" opacity="0" width="20" height="20" x="160" y="120"></rect><rect class="hoverBox" opacity="0" width="20" height="20" x="180" y="120"></rect><rect class="hoverBox" opacity="0" width="20" height="20" x="200" y="120"></rect><rect class="hoverBox" opacity="0" width="20" height="20" x="220" y="120"></rect><rect class="hoverBox" opacity="0" width="20" height="20" x="240" y="120"></rect><rect class="hoverBox" opacity="0" width="20" height="20" x="260" y="120"></rect><rect class="hoverBox" opacity="0" width="20" height="20" x="280" y="120"></rect><rect class="hoverBox" opacity="0" width="20" height="20" x="0" y="140"></rect><rect class="hoverBox" opacity="0" width="20" height="20" x="20" y="140"></rect><rect class="hoverBox" opacity="0" width="20" height="20" x="40" y="140"></rect><rect class="hoverBox" opacity="0" width="20" height="20" x="60" y="140"></rect><rect class="hoverBox" opacity="0" width="20" height="20" x="80" y="140"></rect><rect class="hoverBox" opacity="0" width="20" height="20" x="100" y="140"></rect><rect class="hoverBox" opacity="0" width="20" height="20" x="120" y="140"></rect><rect class="hoverBox" opacity="0" width="20" height="20" x="140" y="140"></rect><rect class="hoverBox" opacity="0" width="20" height="20" x="160" y="140"></rect><rect class="hoverBox" opacity="0" width="20" height="20" x="180" y="140"></rect><rect class="hoverBox" opacity="0" width="20" height="20" x="200" y="140"></rect><rect class="hoverBox" opacity="0" width="20" height="20" x="220" y="140"></rect><rect class="hoverBox" opacity="0" width="20" height="20" x="240" y="140"></rect><rect class="hoverBox" opacity="0" width="20" height="20" x="260" y="140"></rect><rect class="hoverBox" opacity="0" width="20" height="20" x="280" y="140"></rect><rect class="hoverBox" opacity="0" width="20" height="20" x="0" y="160"></rect><rect class="hoverBox" opacity="0" width="20" height="20" x="20" y="160"></rect><rect class="hoverBox" opacity="0" width="20" height="20" x="40" y="160"></rect><rect class="hoverBox" opacity="0" width="20" height="20" x="60" y="160"></rect><rect class="hoverBox" opacity="0" width="20" height="20" x="80" y="160"></rect><rect class="hoverBox" opacity="0" width="20" height="20" x="100" y="160"></rect><rect class="hoverBox" opacity="0" width="20" height="20" x="120" y="160"></rect><rect class="hoverBox" opacity="0" width="20" height="20" x="140" y="160"></rect><rect class="hoverBox" opacity="0" width="20" height="20" x="160" y="160"></rect><rect class="hoverBox" opacity="0" width="20" height="20" x="180" y="160"></rect><rect class="hoverBox" opacity="0" width="20" height="20" x="200" y="160"></rect><rect class="hoverBox" opacity="0" width="20" height="20" x="220" y="160"></rect><rect class="hoverBox" opacity="0" width="20" height="20" x="240" y="160"></rect><rect class="hoverBox" opacity="0" width="20" height="20" x="260" y="160"></rect><rect class="hoverBox" opacity="0" width="20" height="20" x="280" y="160"></rect><rect class="hoverBox" opacity="0" width="20" height="20" x="0" y="180"></rect><rect class="hoverBox" opacity="0" width="20" height="20" x="20" y="180"></rect><rect class="hoverBox" opacity="0" width="20" height="20" x="40" y="180"></rect><rect class="hoverBox" opacity="0" width="20" height="20" x="60" y="180"></rect><rect class="hoverBox" opacity="0" width="20" height="20" x="80" y="180"></rect><rect class="hoverBox" opacity="0" width="20" height="20" x="100" y="180"></rect><rect class="hoverBox" opacity="0" width="20" height="20" x="120" y="180"></rect><rect class="hoverBox" opacity="0" width="20" height="20" x="140" y="180"></rect><rect class="hoverBox" opacity="0" width="20" height="20" x="160" y="180"></rect><rect class="hoverBox" opacity="0" width="20" height="20" x="180" y="180"></rect><rect class="hoverBox" opacity="0" width="20" height="20" x="200" y="180"></rect><rect class="hoverBox" opacity="0" width="20" height="20" x="220" y="180"></rect><rect class="hoverBox" opacity="0" width="20" height="20" x="240" y="180"></rect><rect class="hoverBox" opacity="0" width="20" height="20" x="260" y="180"></rect><rect class="hoverBox" opacity="0" width="20" height="20" x="280" y="180"></rect><rect class="hoverBox" opacity="0" width="20" height="20" x="0" y="200"></rect><rect class="hoverBox" opacity="0" width="20" height="20" x="20" y="200"></rect><rect class="hoverBox" opacity="0" width="20" height="20" x="40" y="200"></rect><rect class="hoverBox" opacity="0" width="20" height="20" x="60" y="200"></rect><rect class="hoverBox" opacity="0" width="20" height="20" x="80" y="200"></rect><rect class="hoverBox" opacity="0" width="20" height="20" x="100" y="200"></rect><rect class="hoverBox" opacity="0" width="20" height="20" x="120" y="200"></rect><rect class="hoverBox" opacity="0" width="20" height="20" x="140" y="200"></rect><rect class="hoverBox" opacity="0" width="20" height="20" x="160" y="200"></rect><rect class="hoverBox" opacity="0" width="20" height="20" x="180" y="200"></rect><rect class="hoverBox" opacity="0" width="20" height="20" x="200" y="200"></rect><rect class="hoverBox" opacity="0" width="20" height="20" x="220" y="200"></rect><rect class="hoverBox" opacity="0" width="20" height="20" x="240" y="200"></rect><rect class="hoverBox" opacity="0" width="20" height="20" x="260" y="200"></rect><rect class="hoverBox" opacity="0" width="20" height="20" x="280" y="200"></rect><rect class="hoverBox" opacity="0" width="20" height="20" x="0" y="220"></rect><rect class="hoverBox" opacity="0" width="20" height="20" x="20" y="220"></rect><rect class="hoverBox" opacity="0" width="20" height="20" x="40" y="220"></rect><rect class="hoverBox" opacity="0" width="20" height="20" x="60" y="220"></rect><rect class="hoverBox" opacity="0" width="20" height="20" x="80" y="220"></rect><rect class="hoverBox" opacity="0" width="20" height="20" x="100" y="220"></rect><rect class="hoverBox" opacity="0" width="20" height="20" x="120" y="220"></rect><rect class="hoverBox" opacity="0" width="20" height="20" x="140" y="220"></rect><rect class="hoverBox" opacity="0" width="20" height="20" x="160" y="220"></rect><rect class="hoverBox" opacity="0" width="20" height="20" x="180" y="220"></rect><rect class="hoverBox" opacity="0" width="20" height="20" x="200" y="220"></rect><rect class="hoverBox" opacity="0" width="20" height="20" x="220" y="220"></rect><rect class="hoverBox" opacity="0" width="20" height="20" x="240" y="220"></rect><rect class="hoverBox" opacity="0" width="20" height="20" x="260" y="220"></rect><rect class="hoverBox" opacity="0" width="20" height="20" x="280" y="220"></rect><rect class="hoverBox" opacity="0" width="20" height="20" x="0" y="240"></rect><rect class="hoverBox" opacity="0" width="20" height="20" x="20" y="240"></rect><rect class="hoverBox" opacity="0" width="20" height="20" x="40" y="240"></rect><rect class="hoverBox" opacity="0" width="20" height="20" x="60" y="240"></rect><rect class="hoverBox" opacity="0" width="20" height="20" x="80" y="240"></rect><rect class="hoverBox" opacity="0" width="20" height="20" x="100" y="240"></rect><rect class="hoverBox" opacity="0" width="20" height="20" x="120" y="240"></rect><rect class="hoverBox" opacity="0" width="20" height="20" x="140" y="240"></rect><rect class="hoverBox" opacity="0" width="20" height="20" x="160" y="240"></rect><rect class="hoverBox" opacity="0" width="20" height="20" x="180" y="240"></rect><rect class="hoverBox" opacity="0" width="20" height="20" x="200" y="240"></rect><rect class="hoverBox" opacity="0" width="20" height="20" x="220" y="240"></rect><rect class="hoverBox" opacity="0" width="20" height="20" x="240" y="240"></rect><rect class="hoverBox" opacity="0" width="20" height="20" x="260" y="240"></rect><rect class="hoverBox" opacity="0" width="20" height="20" x="280" y="240"></rect><rect class="hoverBox" opacity="0" width="20" height="20" x="0" y="260"></rect><rect class="hoverBox" opacity="0" width="20" height="20" x="20" y="260"></rect><rect class="hoverBox" opacity="0" width="20" height="20" x="40" y="260"></rect><rect class="hoverBox" opacity="0" width="20" height="20" x="60" y="260"></rect><rect class="hoverBox" opacity="0" width="20" height="20" x="80" y="260"></rect><rect class="hoverBox" opacity="0" width="20" height="20" x="100" y="260"></rect><rect class="hoverBox" opacity="0" width="20" height="20" x="120" y="260"></rect><rect class="hoverBox" opacity="0" width="20" height="20" x="140" y="260"></rect><rect class="hoverBox" opacity="0" width="20" height="20" x="160" y="260"></rect><rect class="hoverBox" opacity="0" width="20" height="20" x="180" y="260"></rect><rect class="hoverBox" opacity="0" width="20" height="20" x="200" y="260"></rect><rect class="hoverBox" opacity="0" width="20" height="20" x="220" y="260"></rect><rect class="hoverBox" opacity="0" width="20" height="20" x="240" y="260"></rect><rect class="hoverBox" opacity="0" width="20" height="20" x="260" y="260"></rect><rect class="hoverBox" opacity="0" width="20" height="20" x="280" y="260"></rect><rect class="hoverBox" opacity="0" width="20" height="20" x="0" y="280"></rect><rect class="hoverBox" opacity="0" width="20" height="20" x="20" y="280"></rect><rect class="hoverBox" opacity="0" width="20" height="20" x="40" y="280"></rect><rect class="hoverBox" opacity="0" width="20" height="20" x="60" y="280"></rect><rect class="hoverBox" opacity="0" width="20" height="20" x="80" y="280"></rect><rect class="hoverBox" opacity="0" width="20" height="20" x="100" y="280"></rect><rect class="hoverBox" opacity="0" width="20" height="20" x="120" y="280"></rect><rect class="hoverBox" opacity="0" width="20" height="20" x="140" y="280"></rect><rect class="hoverBox" opacity="0" width="20" height="20" x="160" y="280"></rect><rect class="hoverBox" opacity="0" width="20" height="20" x="180" y="280"></rect><rect class="hoverBox" opacity="0" width="20" height="20" x="200" y="280"></rect><rect class="hoverBox" opacity="0" width="20" height="20" x="220" y="280"></rect><rect class="hoverBox" opacity="0" width="20" height="20" x="240" y="280"></rect><rect class="hoverBox" opacity="0" width="20" height="20" x="260" y="280"></rect><rect class="hoverBox" opacity="0" width="20" height="20" x="280" y="280"></rect></svg>
