<svg version="1.1" id="svg" xmlns="http://www.w3.org/2000/svg" xmlns:xlink="http://www.w3.org/1999/xlink" width="200" height="270" y="125" viewBox="0 0 400 300" preserveAspectRatio="xMinYMin meet" xmlns:ns14900777="http://hpi.de/baudisch/linepod" ns14900777:version="0"><defs><pattern id="triggerPlateau" x="0" y="0" width="100" height="10" patternUnits="userSpaceOnUse"><rect x="0" y="0" width="100" height="10" stroke="black" fill="white"/></pattern></defs><rect x="300" y="0" id="speechTrigger" width="100" height="100" fill="url(#triggerPlateau)" stroke="black" ns14900777:version="0"/><path d="M0,0" fill="white" stroke="black" transform="translate(10,10)" ns14900777:version="0"/><path d="M0,0" fill="white" stroke="black" transform="translate(30,10)" ns14900777:version="0"/><path d="M0,0" fill="white" stroke="black" transform="translate(50,10)" ns14900777:version="0"/><path d="M0,0" fill="white" stroke="black" transform="translate(70,10)" ns14900777:version="0"/><path d="M0,0" fill="white" stroke="black" transform="translate(90,10)" ns14900777:version="0"/><path d="M0,0" fill="white" stroke="black" transform="translate(110,10)" ns14900777:version="0"/><path d="M0,0" fill="white" stroke="black" transform="translate(130,10)" ns14900777:version="0"/><path d="M0,0" fill="white" stroke="black" transform="translate(150,10)" ns14900777:version="0"/><path d="M0,0" fill="white" stroke="black" transform="translate(170,10)" ns14900777:version="0"/><path d="M0,0" fill="white" stroke="black" transform="translate(190,10)" ns14900777:version="0"/><path d="M0,0" fill="white" stroke="black" transform="translate(210,10)" ns14900777:version="0"/><path d="M0,0" fill="white" stroke="black" transform="translate(230,10)" ns14900777:version="0"/><path d="M0,0" fill="white" stroke="black" transform="translate(250,10)" ns14900777:version="0"/><path d="M0,0" fill="white" stroke="black" transform="translate(270,10)" ns14900777:version="0"/><path d="M0,0" fill="white" stroke="black" transform="translate(290,10)" ns14900777:version="0"/><path d="M0,0" fill="white" stroke="black" transform="translate(10,30)" ns14900777:version="0"/><path d="M0,0" fill="white" stroke="black" transform="translate(30,30)" ns14900777:version="0"/><path d="M0,0" fill="white" stroke="black" transform="translate(50,30)" ns14900777:version="0"/><path d="M0,0" fill="white" stroke="black" transform="translate(70,30)" ns14900777:version="0"/><path d="M0,0" fill="white" stroke="black" transform="translate(90,30)" ns14900777:version="0"/><path d="M0,0" fill="white" stroke="black" transform="translate(110,30)" ns14900777:version="0"/><path d="M0,0" fill="white" stroke="black" transform="translate(130,30)" ns14900777:version="0"/><path d="M0,0" fill="white" stroke="black" transform="translate(150,30)" ns14900777:version="0"/><path d="M0,0" fill="white" stroke="black" transform="translate(170,30)" ns14900777:version="0"/><path d="M0,0" fill="white" stroke="black" transform="translate(190,30)" ns14900777:version="0"/><path d="M0,0" fill="white" stroke="black" transform="translate(210,30)" ns14900777:version="0"/><path d="M0,0" fill="white" stroke="black" transform="translate(230,30)" ns14900777:version="0"/><path d="M0,0" fill="white" stroke="black" transform="translate(250,30)" ns14900777:version="0"/><path d="M0,0" fill="white" stroke="black" transform="translate(270,30)" ns14900777:version="0"/><path d="M0,0" fill="white" stroke="black" transform="translate(290,30)" ns14900777:version="0"/><path d="M0,0" fill="white" stroke="black" transform="translate(10,50)" ns14900777:version="0"/><path d="M0,0" fill="white" stroke="black" transform="translate(30,50)" ns14900777:version="0"/><path d="M0,0" fill="white" stroke="black" transform="translate(50,50)" ns14900777:version="0"/><path d="M0,0" fill="white" stroke="black" transform="translate(70,50)" ns14900777:version="0"/><path d="M0,0" fill="white" stroke="black" transform="translate(90,50)" ns14900777:version="0"/><path d="M0,0" fill="white" stroke="black" transform="translate(110,50)" ns14900777:version="0"/><path d="M0,0" fill="white" stroke="black" transform="translate(130,50)" ns14900777:version="0"/><path d="M0,0" fill="white" stroke="black" transform="translate(150,50)" ns14900777:version="0"/><path d="M0,0" fill="white" stroke="black" transform="translate(170,50)" ns14900777:version="0"/><path d="M0,0" fill="white" stroke="black" transform="translate(190,50)" ns14900777:version="0"/><path d="M0,0" fill="white" stroke="black" transform="translate(210,50)" ns14900777:version="0"/><path d="M0,0" fill="white" stroke="black" transform="translate(230,50)" ns14900777:version="0"/><path d="M0,0" fill="white" stroke="black" transform="translate(250,50)" ns14900777:version="0"/><path d="M0,0" fill="white" stroke="black" transform="translate(270,50)" ns14900777:version="0"/><path d="M0,0" fill="white" stroke="black" transform="translate(290,50)" ns14900777:version="0"/><path d="M0,0" fill="white" stroke="black" transform="translate(10,70)" ns14900777:version="0"/><path d="M0,0" fill="white" stroke="black" transform="translate(30,70)" ns14900777:version="0"/><path d="M0,0" fill="white" stroke="black" transform="translate(50,70)" ns14900777:version="0"/><path d="M0,0" fill="white" stroke="black" transform="translate(70,70)" ns14900777:version="0"/><path d="M0,0" fill="white" stroke="black" transform="translate(90,70)" ns14900777:version="0"/><path d="M0,0" fill="white" stroke="black" transform="translate(110,70)" ns14900777:version="0"/><path d="M0,0" fill="white" stroke="black" transform="translate(130,70)" ns14900777:version="0"/><path d="M0,0" fill="white" stroke="black" transform="translate(150,70)" ns14900777:version="0"/><path d="M0,0" fill="white" stroke="black" transform="translate(170,70)" ns14900777:version="0"/><path d="M0,0" fill="white" stroke="black" transform="translate(190,70)" ns14900777:version="0"/><path d="M0,0" fill="white" stroke="black" transform="translate(210,70)" ns14900777:version="0"/><path d="M0,0" fill="white" stroke="black" transform="translate(230,70)" ns14900777:version="0"/><path d="M0,0" fill="white" stroke="black" transform="translate(250,70)" ns14900777:version="0"/><path d="M0,0" fill="white" stroke="black" transform="translate(270,70)" ns14900777:version="0"/><path d="M0,0" fill="white" stroke="black" transform="translate(290,70)" ns14900777:version="0"/><path d="M0,0" fill="white" stroke="black" transform="translate(10,90)" ns14900777:version="0"/><path d="M0,0" fill="white" stroke="black" transform="translate(30,90)" ns14900777:version="0"/><path d="M0,0" fill="white" stroke="black" transform="translate(50,90)" ns14900777:version="0"/><path d="M0,0" fill="white" stroke="black" transform="translate(70,90)" ns14900777:version="0"/><path d="M0,0" fill="white" stroke="black" transform="translate(90,90)" ns14900777:version="0"/><path d="M0,0" fill="white" stroke="black" transform="translate(110,90)" ns14900777:version="0"/><path d="M0,0" fill="white" stroke="black" transform="translate(130,90)" ns14900777:version="0"/><path d="M0,0" fill="white" stroke="black" transform="translate(150,90)" ns14900777:version="0"/><path d="M0,0" fill="white" stroke="black" transform="translate(170,90)" ns14900777:version="0"/><path d="M0,0" fill="white" stroke="black" transform="translate(190,90)" ns14900777:version="0"/><path d="M0,0" fill="white" stroke="black" transform="translate(210,90)" ns14900777:version="0"/><path d="M0,0" fill="white" stroke="black" transform="translate(230,90)" ns14900777:version="0"/><path d="M0,0" fill="white" stroke="black" transform="translate(250,90)" ns14900777:version="0"/><path d="M0,0" fill="white" stroke="black" transform="translate(270,90)" ns14900777:version="0"/><path d="M0,0" fill="white" stroke="black" transform="translate(290,90)" ns14900777:version="0"/><path d="M0,0" fill="white" stroke="black" transform="translate(10,110)" ns14900777:version="0"/><path d="M0,0" fill="white" stroke="black" transform="translate(30,110)" ns14900777:version="0"/><path d="M0,0" fill="white" stroke="black" transform="translate(50,110)" ns14900777:version="0"/><path d="M0,0" fill="white" stroke="black" transform="translate(70,110)" ns14900777:version="0"/><path d="M0,0" fill="white" stroke="black" transform="translate(90,110)" ns14900777:version="0"/><path d="M0,0" fill="white" stroke="black" transform="translate(110,110)" ns14900777:version="0"/><path d="M0,0" fill="white" stroke="black" transform="translate(130,110)" ns14900777:version="0"/><path d="M0,0" fill="white" stroke="black" transform="translate(150,110)" ns14900777:version="0"/><path d="M0,0" fill="white" stroke="black" transform="translate(170,110)" ns14900777:version="0"/><path d="M0,0" fill="white" stroke="black" transform="translate(190,110)" ns14900777:version="0"/><path d="M0,0" fill="white" stroke="black" transform="translate(210,110)" ns14900777:version="0"/><path d="M0,0" fill="white" stroke="black" transform="translate(230,110)" ns14900777:version="0"/><path d="M0,0" fill="white" stroke="black" transform="translate(250,110)" ns14900777:version="0"/><path d="M0,0" fill="white" stroke="black" transform="translate(270,110)" ns14900777:version="0"/><path d="M0,0" fill="white" stroke="black" transform="translate(290,110)" ns14900777:version="0"/><path d="M0,0" fill="white" stroke="black" transform="translate(10,130)" ns14900777:version="0"/><path d="M0,0" fill="white" stroke="black" transform="translate(30,130)" ns14900777:version="0"/><path d="M0,0" fill="white" stroke="black" transform="translate(50,130)" ns14900777:version="0"/><path d="M0,0" fill="white" stroke="black" transform="translate(70,130)" ns14900777:version="0"/><path d="M0,0" fill="white" stroke="black" transform="translate(90,130)" ns14900777:version="0"/><path d="M0,0" fill="white" stroke="black" transform="translate(110,130)" ns14900777:version="0"/><path d="M0,0" fill="white" stroke="black" transform="translate(130,130)" ns14900777:version="0"/><path d="M0,0" fill="white" stroke="black" transform="translate(150,130)" ns14900777:version="0"/><path d="M0,0" fill="white" stroke="black" transform="translate(170,130)" ns14900777:version="0"/><path d="M0,0" fill="white" stroke="black" transform="translate(190,130)" ns14900777:version="0"/><path d="M0,0" fill="white" stroke="black" transform="translate(210,130)" ns14900777:version="0"/><path d="M0,0" fill="white" stroke="black" transform="translate(230,130)" ns14900777:version="0"/><path d="M0,0" fill="white" stroke="black" transform="translate(250,130)" ns14900777:version="0"/><path d="M0,0" fill="white" stroke="black" transform="translate(270,130)" ns14900777:version="0"/><path d="M0,0" fill="white" stroke="black" transform="translate(290,130)" ns14900777:version="0"/><path d="M0,0" fill="white" stroke="black" transform="translate(10,150)" ns14900777:version="0"/><path d="M0,0" fill="white" stroke="black" transform="translate(30,150)" ns14900777:version="0"/><path d="M0,0" fill="white" stroke="black" transform="translate(50,150)" ns14900777:version="0"/><path d="M0,0" fill="white" stroke="black" transform="translate(70,150)" ns14900777:version="0"/><path d="M0,0" fill="white" stroke="black" transform="translate(90,150)" ns14900777:version="0"/><path d="M0,0" fill="white" stroke="black" transform="translate(110,150)" ns14900777:version="0"/><path d="M0,0" fill="white" stroke="black" transform="translate(130,150)" ns14900777:version="0"/><path d="M0,0" fill="white" stroke="black" transform="translate(150,150)" ns14900777:version="0"/><path d="M0,0" fill="white" stroke="black" transform="translate(170,150)" ns14900777:version="0"/><path d="M0,0" fill="white" stroke="black" transform="translate(190,150)" ns14900777:version="0"/><path d="M0,0" fill="white" stroke="black" transform="translate(210,150)" ns14900777:version="0"/><path d="M0,0" fill="white" stroke="black" transform="translate(230,150)" ns14900777:version="0"/><path d="M0,0" fill="white" stroke="black" transform="translate(250,150)" ns14900777:version="0"/><path d="M0,0" fill="white" stroke="black" transform="translate(270,150)" ns14900777:version="0"/><path d="M0,0" fill="white" stroke="black" transform="translate(290,150)" ns14900777:version="0"/><path d="M0,0" fill="white" stroke="black" transform="translate(10,170)" ns14900777:version="0"/><path d="M0,0" fill="white" stroke="black" transform="translate(30,170)" ns14900777:version="0"/><path d="M0,0" fill="white" stroke="black" transform="translate(50,170)" ns14900777:version="0"/><path d="M0,0" fill="white" stroke="black" transform="translate(70,170)" ns14900777:version="0"/><path d="M0,0" fill="white" stroke="black" transform="translate(90,170)" ns14900777:version="0"/><path d="M0,0" fill="white" stroke="black" transform="translate(110,170)" ns14900777:version="0"/><path d="M0,0" fill="white" stroke="black" transform="translate(130,170)" ns14900777:version="0"/><path d="M0,0" fill="white" stroke="black" transform="translate(150,170)" ns14900777:version="0"/><path d="M0,0" fill="white" stroke="black" transform="translate(170,170)" ns14900777:version="0"/><path d="M0,0" fill="white" stroke="black" transform="translate(190,170)" ns14900777:version="0"/><path d="M0,0" fill="white" stroke="black" transform="translate(210,170)" ns14900777:version="0"/><path d="M0,0" fill="white" stroke="black" transform="translate(230,170)" ns14900777:version="0"/><path d="M0,0" fill="white" stroke="black" transform="translate(250,170)" ns14900777:version="0"/><path d="M0,0" fill="white" stroke="black" transform="translate(270,170)" ns14900777:version="0"/><path d="M0,0" fill="white" stroke="black" transform="translate(290,170)" ns14900777:version="0"/><path d="M0,0" fill="white" stroke="black" transform="translate(10,190)" ns14900777:version="0"/><path d="M0,0" fill="white" stroke="black" transform="translate(30,190)" ns14900777:version="0"/><path d="M0,0" fill="white" stroke="black" transform="translate(50,190)" ns14900777:version="0"/><path d="M0,0" fill="white" stroke="black" transform="translate(70,190)" ns14900777:version="0"/><path d="M0,0" fill="white" stroke="black" transform="translate(90,190)" ns14900777:version="0"/><path d="M0,0" fill="white" stroke="black" transform="translate(110,190)" ns14900777:version="0"/><path d="M0,0" fill="white" stroke="black" transform="translate(130,190)" ns14900777:version="0"/><path d="M0,0" fill="white" stroke="black" transform="translate(150,190)" ns14900777:version="0"/><path d="M0,0" fill="white" stroke="black" transform="translate(170,190)" ns14900777:version="0"/><path d="M0,0" fill="white" stroke="black" transform="translate(190,190)" ns14900777:version="0"/><path d="M0,0" fill="white" stroke="black" transform="translate(210,190)" ns14900777:version="0"/><path d="M0,0" fill="white" stroke="black" transform="translate(230,190)" ns14900777:version="0"/><path d="M0,0" fill="white" stroke="black" transform="translate(250,190)" ns14900777:version="0"/><path d="M0,0" fill="white" stroke="black" transform="translate(270,190)" ns14900777:version="0"/><path d="M0,0" fill="white" stroke="black" transform="translate(290,190)" ns14900777:version="0"/><path d="M0,0" fill="white" stroke="black" transform="translate(10,210)" ns14900777:version="0"/><path d="M0,0" fill="white" stroke="black" transform="translate(30,210)" ns14900777:version="0"/><path d="M0,0" fill="white" stroke="black" transform="translate(50,210)" ns14900777:version="0"/><path d="M0,0" fill="white" stroke="black" transform="translate(70,210)" ns14900777:version="0"/><path d="M0,0" fill="white" stroke="black" transform="translate(90,210)" ns14900777:version="0"/><path d="M0,0" fill="white" stroke="black" transform="translate(110,210)" ns14900777:version="0"/><path d="M0,0" fill="white" stroke="black" transform="translate(130,210)" ns14900777:version="0"/><path d="M0,0" fill="white" stroke="black" transform="translate(150,210)" ns14900777:version="0"/><path d="M0,0" fill="white" stroke="black" transform="translate(170,210)" ns14900777:version="0"/><path d="M0,0" fill="white" stroke="black" transform="translate(190,210)" ns14900777:version="0"/><path d="M0,0" fill="white" stroke="black" transform="translate(210,210)" ns14900777:version="0"/><path d="M0,0" fill="white" stroke="black" transform="translate(230,210)" ns14900777:version="0"/><path d="M0,0" fill="white" stroke="black" transform="translate(250,210)" ns14900777:version="0"/><path d="M0,0" fill="white" stroke="black" transform="translate(270,210)" ns14900777:version="0"/><path d="M0,0" fill="white" stroke="black" transform="translate(290,210)" ns14900777:version="0"/><path d="M0,0" fill="white" stroke="black" transform="translate(10,230)" ns14900777:version="0"/><path d="M0,0" fill="white" stroke="black" transform="translate(30,230)" ns14900777:version="0"/><path d="M0,0" fill="white" stroke="black" transform="translate(50,230)" ns14900777:version="0"/><path d="M0,0" fill="white" stroke="black" transform="translate(70,230)" ns14900777:version="0"/><path d="M0,0" fill="white" stroke="black" transform="translate(90,230)" ns14900777:version="0"/><path d="M0,0" fill="white" stroke="black" transform="translate(110,230)" ns14900777:version="0"/><path d="M0,0" fill="white" stroke="black" transform="translate(130,230)" ns14900777:version="0"/><path d="M0,0" fill="white" stroke="black" transform="translate(150,230)" ns14900777:version="0"/><path d="M0,0" fill="white" stroke="black" transform="translate(170,230)" ns14900777:version="0"/><path d="M0,0" fill="white" stroke="black" transform="translate(190,230)" ns14900777:version="0"/><path d="M0,0" fill="white" stroke="black" transform="translate(210,230)" ns14900777:version="0"/><path d="M0,0" fill="white" stroke="black" transform="translate(230,230)" ns14900777:version="0"/><path d="M0,0" fill="white" stroke="black" transform="translate(250,230)" ns14900777:version="0"/><path d="M0,0" fill="white" stroke="black" transform="translate(270,230)" ns14900777:version="0"/><path d="M0,0" fill="white" stroke="black" transform="translate(290,230)" ns14900777:version="0"/><path d="M0,0" fill="white" stroke="black" transform="translate(10,250)" ns14900777:version="0"/><path d="M0,0" fill="white" stroke="black" transform="translate(30,250)" ns14900777:version="0"/><path d="M0,0" fill="white" stroke="black" transform="translate(50,250)" ns14900777:version="0"/><path d="M0,0" fill="white" stroke="black" transform="translate(70,250)" ns14900777:version="0"/><path d="M0,0" fill="white" stroke="black" transform="translate(90,250)" ns14900777:version="0"/><path d="M0,0" fill="white" stroke="black" transform="translate(110,250)" ns14900777:version="0"/><path d="M0,0" fill="white" stroke="black" transform="translate(130,250)" ns14900777:version="0"/><path d="M0,0" fill="white" stroke="black" transform="translate(150,250)" ns14900777:version="0"/><path d="M0,0" fill="white" stroke="black" transform="translate(170,250)" ns14900777:version="0"/><path d="M0,0" fill="white" stroke="black" transform="translate(190,250)" ns14900777:version="0"/><path d="M0,0" fill="white" stroke="black" transform="translate(210,250)" ns14900777:version="0"/><path d="M0,0" fill="white" stroke="black" transform="translate(230,250)" ns14900777:version="0"/><path d="M0,0" fill="white" stroke="black" transform="translate(250,250)" ns14900777:version="0"/><path d="M0,0" fill="white" stroke="black" transform="translate(270,250)" ns14900777:version="0"/><path d="M0,0" fill="white" stroke="black" transform="translate(290,250)" ns14900777:version="0"/><path d="M0,0" fill="white" stroke="black" transform="translate(10,270)" ns14900777:version="0"/><path d="M0,0" fill="white" stroke="black" transform="translate(30,270)" ns14900777:version="0"/><path d="M0,0" fill="white" stroke="black" transform="translate(50,270)" ns14900777:version="0"/><path d="M0,0" fill="white" stroke="black" transform="translate(70,270)" ns14900777:version="0"/><path d="M0,0" fill="white" stroke="black" transform="translate(90,270)" ns14900777:version="0"/><path d="M0,0" fill="white" stroke="black" transform="translate(110,270)" ns14900777:version="0"/><path d="M0,0" fill="white" stroke="black" transform="translate(130,270)" ns14900777:version="0"/><path d="M0,0" fill="white" stroke="black" transform="translate(150,270)" ns14900777:version="0"/><path d="M0,0" fill="white" stroke="black" transform="translate(170,270)" ns14900777:version="0"/><path d="M0,0" fill="white" stroke="black" transform="translate(190,270)" ns14900777:version="0"/><path d="M0,0" fill="white" stroke="black" transform="translate(210,270)" ns14900777:version="0"/><path d="M0,0" fill="white" stroke="black" transform="translate(230,270)" ns14900777:version="0"/><path d="M0,0" fill="white" stroke="black" transform="translate(250,270)" ns14900777:version="0"/><path d="M0,0" fill="white" stroke="black" transform="translate(270,270)" ns14900777:version="0"/><path d="M0,0" fill="white" stroke="black" transform="translate(290,270)" ns14900777:version="0"/><path d="M0,0" fill="white" stroke="black" transform="translate(10,290)" ns14900777:version="0"/><path d="M0,0" fill="white" stroke="black" transform="translate(30,290)" ns14900777:version="0"/><path d="M0,0" fill="white" stroke="black" transform="translate(50,290)" ns14900777:version="0"/><path d="M0,0" fill="white" stroke="black" transform="translate(70,290)" ns14900777:version="0"/><path d="M0,0" fill="white" stroke="black" transform="translate(90,290)" ns14900777:version="0"/><path d="M0,0" fill="white" stroke="black" transform="translate(110,290)" ns14900777:version="0"/><path d="M0,0" fill="white" stroke="black" transform="translate(130,290)" ns14900777:version="0"/><path d="M0,0" fill="white" stroke="black" transform="translate(150,290)" ns14900777:version="0"/><path d="M0,0" fill="white" stroke="black" transform="translate(170,290)" ns14900777:version="0"/><path d="M0,0" fill="white" stroke="black" transform="translate(190,290)" ns14900777:version="0"/><path d="M0,0" fill="white" stroke="black" transform="translate(210,290)" ns14900777:version="0"/><path d="M0,0" fill="white" stroke="black" transform="translate(230,290)" ns14900777:version="0"/><path d="M0,0" fill="white" stroke="black" transform="translate(250,290)" ns14900777:version="0"/><path d="M0,0" fill="white" stroke="black" transform="translate(270,290)" ns14900777:version="0"/><path d="M0,0" fill="white" stroke="black" transform="translate(290,290)" ns14900777:version="0"/><rect class="hoverBox" stroke="none" fill="white" width="20" height="20" x="0" y="0" ns14900777:version="0"/><rect class="hoverBox" stroke="none" fill="white" width="20" height="20" x="20" y="0" ns14900777:version="0"/><rect class="hoverBox" stroke="none" fill="white" width="20" height="20" x="40" y="0" ns14900777:version="0"/><rect class="hoverBox" stroke="none" fill="white" width="20" height="20" x="60" y="0" ns14900777:version="0"/><rect class="hoverBox" stroke="none" fill="white" width="20" height="20" x="80" y="0" ns14900777:version="0"/><rect class="hoverBox" stroke="none" fill="white" width="20" height="20" x="100" y="0" ns14900777:version="0"/><rect class="hoverBox" stroke="none" fill="white" width="20" height="20" x="120" y="0" ns14900777:version="0"/><rect class="hoverBox" stroke="none" fill="white" width="20" height="20" x="140" y="0" ns14900777:version="0"/><rect class="hoverBox" stroke="none" fill="white" width="20" height="20" x="160" y="0" ns14900777:version="0"/><rect class="hoverBox" stroke="none" fill="white" width="20" height="20" x="180" y="0" ns14900777:version="0"/><rect class="hoverBox" stroke="none" fill="white" width="20" height="20" x="200" y="0" ns14900777:version="0"/><rect class="hoverBox" stroke="none" fill="white" width="20" height="20" x="220" y="0" ns14900777:version="0"/><rect class="hoverBox" stroke="none" fill="white" width="20" height="20" x="240" y="0" ns14900777:version="0"/><rect class="hoverBox" stroke="none" fill="white" width="20" height="20" x="260" y="0" ns14900777:version="0"/><rect class="hoverBox" stroke="none" fill="white" width="20" height="20" x="280" y="0" ns14900777:version="0"/><rect class="hoverBox" stroke="none" fill="white" width="20" height="20" x="0" y="20" ns14900777:version="0"/><rect class="hoverBox" stroke="none" fill="white" width="20" height="20" x="20" y="20" ns14900777:version="0"/><rect class="hoverBox" stroke="none" fill="white" width="20" height="20" x="40" y="20" ns14900777:version="0"/><rect class="hoverBox" stroke="none" fill="white" width="20" height="20" x="60" y="20" ns14900777:version="0"/><rect class="hoverBox" stroke="none" fill="white" width="20" height="20" x="80" y="20" ns14900777:version="0"/><rect class="hoverBox" stroke="none" fill="white" width="20" height="20" x="100" y="20" ns14900777:version="0"/><rect class="hoverBox" stroke="none" fill="white" width="20" height="20" x="120" y="20" ns14900777:version="0"/><rect class="hoverBox" stroke="none" fill="white" width="20" height="20" x="140" y="20" ns14900777:version="0"/><rect class="hoverBox" stroke="none" fill="white" width="20" height="20" x="160" y="20" ns14900777:version="0"/><rect class="hoverBox" stroke="none" fill="white" width="20" height="20" x="180" y="20" ns14900777:version="0"/><rect class="hoverBox" stroke="none" fill="white" width="20" height="20" x="200" y="20" ns14900777:version="0"/><rect class="hoverBox" stroke="none" fill="white" width="20" height="20" x="220" y="20" ns14900777:version="0"/><rect class="hoverBox" stroke="none" fill="white" width="20" height="20" x="240" y="20" ns14900777:version="0"/><rect class="hoverBox" stroke="none" fill="white" width="20" height="20" x="260" y="20" ns14900777:version="0"/><rect class="hoverBox" stroke="none" fill="white" width="20" height="20" x="280" y="20" ns14900777:version="0"/><rect class="hoverBox" stroke="none" fill="white" width="20" height="20" x="0" y="40" ns14900777:version="0"/><rect class="hoverBox" stroke="none" fill="white" width="20" height="20" x="20" y="40" ns14900777:version="0"/><rect class="hoverBox" stroke="none" fill="white" width="20" height="20" x="40" y="40" ns14900777:version="0"/><rect class="hoverBox" stroke="none" fill="white" width="20" height="20" x="60" y="40" ns14900777:version="0"/><rect class="hoverBox" stroke="none" fill="white" width="20" height="20" x="80" y="40" ns14900777:version="0"/><rect class="hoverBox" stroke="none" fill="white" width="20" height="20" x="100" y="40" ns14900777:version="0"/><rect class="hoverBox" stroke="none" fill="white" width="20" height="20" x="120" y="40" ns14900777:version="0"/><rect class="hoverBox" stroke="none" fill="white" width="20" height="20" x="140" y="40" ns14900777:version="0"/><rect class="hoverBox" stroke="none" fill="white" width="20" height="20" x="160" y="40" ns14900777:version="0"/><rect class="hoverBox" stroke="none" fill="white" width="20" height="20" x="180" y="40" ns14900777:version="0"/><rect class="hoverBox" stroke="none" fill="white" width="20" height="20" x="200" y="40" ns14900777:version="0"/><rect class="hoverBox" stroke="none" fill="white" width="20" height="20" x="220" y="40" ns14900777:version="0"/><rect class="hoverBox" stroke="none" fill="white" width="20" height="20" x="240" y="40" ns14900777:version="0"/><rect class="hoverBox" stroke="none" fill="white" width="20" height="20" x="260" y="40" ns14900777:version="0"/><rect class="hoverBox" stroke="none" fill="white" width="20" height="20" x="280" y="40" ns14900777:version="0"/><rect class="hoverBox" stroke="none" fill="white" width="20" height="20" x="0" y="60" ns14900777:version="0"/><rect class="hoverBox" stroke="none" fill="white" width="20" height="20" x="20" y="60" ns14900777:version="0"/><rect class="hoverBox" stroke="none" fill="white" width="20" height="20" x="40" y="60" ns14900777:version="0"/><rect class="hoverBox" stroke="none" fill="white" width="20" height="20" x="60" y="60" ns14900777:version="0"/><rect class="hoverBox" stroke="none" fill="white" width="20" height="20" x="80" y="60" ns14900777:version="0"/><rect class="hoverBox" stroke="none" fill="white" width="20" height="20" x="100" y="60" ns14900777:version="0"/><rect class="hoverBox" stroke="none" fill="white" width="20" height="20" x="120" y="60" ns14900777:version="0"/><rect class="hoverBox" stroke="none" fill="white" width="20" height="20" x="140" y="60" ns14900777:version="0"/><rect class="hoverBox" stroke="none" fill="white" width="20" height="20" x="160" y="60" ns14900777:version="0"/><rect class="hoverBox" stroke="none" fill="white" width="20" height="20" x="180" y="60" ns14900777:version="0"/><rect class="hoverBox" stroke="none" fill="white" width="20" height="20" x="200" y="60" ns14900777:version="0"/><rect class="hoverBox" stroke="none" fill="white" width="20" height="20" x="220" y="60" ns14900777:version="0"/><rect class="hoverBox" stroke="none" fill="white" width="20" height="20" x="240" y="60" ns14900777:version="0"/><rect class="hoverBox" stroke="none" fill="white" width="20" height="20" x="260" y="60" ns14900777:version="0"/><rect class="hoverBox" stroke="none" fill="white" width="20" height="20" x="280" y="60" ns14900777:version="0"/><rect class="hoverBox" stroke="none" fill="white" width="20" height="20" x="0" y="80" ns14900777:version="0"/><rect class="hoverBox" stroke="none" fill="white" width="20" height="20" x="20" y="80" ns14900777:version="0"/><rect class="hoverBox" stroke="none" fill="white" width="20" height="20" x="40" y="80" ns14900777:version="0"/><rect class="hoverBox" stroke="none" fill="white" width="20" height="20" x="60" y="80" ns14900777:version="0"/><rect class="hoverBox" stroke="none" fill="white" width="20" height="20" x="80" y="80" ns14900777:version="0"/><rect class="hoverBox" stroke="none" fill="white" width="20" height="20" x="100" y="80" ns14900777:version="0"/><rect class="hoverBox" stroke="none" fill="white" width="20" height="20" x="120" y="80" ns14900777:version="0"/><rect class="hoverBox" stroke="none" fill="white" width="20" height="20" x="140" y="80" ns14900777:version="0"/><rect class="hoverBox" stroke="none" fill="white" width="20" height="20" x="160" y="80" ns14900777:version="0"/><rect class="hoverBox" stroke="none" fill="white" width="20" height="20" x="180" y="80" ns14900777:version="0"/><rect class="hoverBox" stroke="none" fill="white" width="20" height="20" x="200" y="80" ns14900777:version="0"/><rect class="hoverBox" stroke="none" fill="white" width="20" height="20" x="220" y="80" ns14900777:version="0"/><rect class="hoverBox" stroke="none" fill="white" width="20" height="20" x="240" y="80" ns14900777:version="0"/><rect class="hoverBox" stroke="none" fill="white" width="20" height="20" x="260" y="80" ns14900777:version="0"/><rect class="hoverBox" stroke="none" fill="white" width="20" height="20" x="280" y="80" ns14900777:version="0"/><rect class="hoverBox" stroke="none" fill="white" width="20" height="20" x="0" y="100" ns14900777:version="0"/><rect class="hoverBox" stroke="none" fill="white" width="20" height="20" x="20" y="100" ns14900777:version="0"/><rect class="hoverBox" stroke="none" fill="white" width="20" height="20" x="40" y="100" ns14900777:version="0"/><rect class="hoverBox" stroke="none" fill="white" width="20" height="20" x="60" y="100" ns14900777:version="0"/><rect class="hoverBox" stroke="none" fill="white" width="20" height="20" x="80" y="100" ns14900777:version="0"/><rect class="hoverBox" stroke="none" fill="white" width="20" height="20" x="100" y="100" ns14900777:version="0"/><rect class="hoverBox" stroke="none" fill="white" width="20" height="20" x="120" y="100" ns14900777:version="0"/><rect class="hoverBox" stroke="none" fill="white" width="20" height="20" x="140" y="100" ns14900777:version="0"/><rect class="hoverBox" stroke="none" fill="white" width="20" height="20" x="160" y="100" ns14900777:version="0"/><rect class="hoverBox" stroke="none" fill="white" width="20" height="20" x="180" y="100" ns14900777:version="0"/><rect class="hoverBox" stroke="none" fill="white" width="20" height="20" x="200" y="100" ns14900777:version="0"/><rect class="hoverBox" stroke="none" fill="white" width="20" height="20" x="220" y="100" ns14900777:version="0"/><rect class="hoverBox" stroke="none" fill="white" width="20" height="20" x="240" y="100" ns14900777:version="0"/><rect class="hoverBox" stroke="none" fill="white" width="20" height="20" x="260" y="100" ns14900777:version="0"/><rect class="hoverBox" stroke="none" fill="white" width="20" height="20" x="280" y="100" ns14900777:version="0"/><rect class="hoverBox" stroke="none" fill="white" width="20" height="20" x="0" y="120" ns14900777:version="0"/><rect class="hoverBox" stroke="none" fill="white" width="20" height="20" x="20" y="120" ns14900777:version="0"/><rect class="hoverBox" stroke="none" fill="white" width="20" height="20" x="40" y="120" ns14900777:version="0"/><rect class="hoverBox" stroke="none" fill="white" width="20" height="20" x="60" y="120" ns14900777:version="0"/><rect class="hoverBox" stroke="none" fill="white" width="20" height="20" x="80" y="120" ns14900777:version="0"/><rect class="hoverBox" stroke="none" fill="white" width="20" height="20" x="100" y="120" ns14900777:version="0"/><rect class="hoverBox" stroke="none" fill="white" width="20" height="20" x="120" y="120" ns14900777:version="0"/><rect class="hoverBox" stroke="none" fill="white" width="20" height="20" x="140" y="120" ns14900777:version="0"/><rect class="hoverBox" stroke="none" fill="white" width="20" height="20" x="160" y="120" ns14900777:version="0"/><rect class="hoverBox" stroke="none" fill="white" width="20" height="20" x="180" y="120" ns14900777:version="0"/><rect class="hoverBox" stroke="none" fill="white" width="20" height="20" x="200" y="120" ns14900777:version="0"/><rect class="hoverBox" stroke="none" fill="white" width="20" height="20" x="220" y="120" ns14900777:version="0"/><rect class="hoverBox" stroke="none" fill="white" width="20" height="20" x="240" y="120" ns14900777:version="0"/><rect class="hoverBox" stroke="none" fill="white" width="20" height="20" x="260" y="120" ns14900777:version="0"/><rect class="hoverBox" stroke="none" fill="white" width="20" height="20" x="280" y="120" ns14900777:version="0"/><rect class="hoverBox" stroke="none" fill="white" width="20" height="20" x="0" y="140" ns14900777:version="0"/><rect class="hoverBox" stroke="none" fill="white" width="20" height="20" x="20" y="140" ns14900777:version="0"/><rect class="hoverBox" stroke="none" fill="white" width="20" height="20" x="40" y="140" ns14900777:version="0"/><rect class="hoverBox" stroke="none" fill="white" width="20" height="20" x="60" y="140" ns14900777:version="0"/><rect class="hoverBox" stroke="none" fill="white" width="20" height="20" x="80" y="140" ns14900777:version="0"/><rect class="hoverBox" stroke="none" fill="white" width="20" height="20" x="100" y="140" ns14900777:version="0"/><rect class="hoverBox" stroke="none" fill="white" width="20" height="20" x="120" y="140" ns14900777:version="0"/><rect class="hoverBox" stroke="none" fill="white" width="20" height="20" x="140" y="140" ns14900777:version="0"/><rect class="hoverBox" stroke="none" fill="white" width="20" height="20" x="160" y="140" ns14900777:version="0"/><rect class="hoverBox" stroke="none" fill="white" width="20" height="20" x="180" y="140" ns14900777:version="0"/><rect class="hoverBox" stroke="none" fill="white" width="20" height="20" x="200" y="140" ns14900777:version="0"/><rect class="hoverBox" stroke="none" fill="white" width="20" height="20" x="220" y="140" ns14900777:version="0"/><rect class="hoverBox" stroke="none" fill="white" width="20" height="20" x="240" y="140" ns14900777:version="0"/><rect class="hoverBox" stroke="none" fill="white" width="20" height="20" x="260" y="140" ns14900777:version="0"/><rect class="hoverBox" stroke="none" fill="white" width="20" height="20" x="280" y="140" ns14900777:version="0"/><rect class="hoverBox" stroke="none" fill="white" width="20" height="20" x="0" y="160" ns14900777:version="0"/><rect class="hoverBox" stroke="none" fill="white" width="20" height="20" x="20" y="160" ns14900777:version="0"/><rect class="hoverBox" stroke="none" fill="white" width="20" height="20" x="40" y="160" ns14900777:version="0"/><rect class="hoverBox" stroke="none" fill="white" width="20" height="20" x="60" y="160" ns14900777:version="0"/><rect class="hoverBox" stroke="none" fill="white" width="20" height="20" x="80" y="160" ns14900777:version="0"/><rect class="hoverBox" stroke="none" fill="white" width="20" height="20" x="100" y="160" ns14900777:version="0"/><rect class="hoverBox" stroke="none" fill="white" width="20" height="20" x="120" y="160" ns14900777:version="0"/><rect class="hoverBox" stroke="none" fill="white" width="20" height="20" x="140" y="160" ns14900777:version="0"/><rect class="hoverBox" stroke="none" fill="white" width="20" height="20" x="160" y="160" ns14900777:version="0"/><rect class="hoverBox" stroke="none" fill="white" width="20" height="20" x="180" y="160" ns14900777:version="0"/><rect class="hoverBox" stroke="none" fill="white" width="20" height="20" x="200" y="160" ns14900777:version="0"/><rect class="hoverBox" stroke="none" fill="white" width="20" height="20" x="220" y="160" ns14900777:version="0"/><rect class="hoverBox" stroke="none" fill="white" width="20" height="20" x="240" y="160" ns14900777:version="0"/><rect class="hoverBox" stroke="none" fill="white" width="20" height="20" x="260" y="160" ns14900777:version="0"/><rect class="hoverBox" stroke="none" fill="white" width="20" height="20" x="280" y="160" ns14900777:version="0"/><rect class="hoverBox" stroke="none" fill="white" width="20" height="20" x="0" y="180" ns14900777:version="0"/><rect class="hoverBox" stroke="none" fill="white" width="20" height="20" x="20" y="180" ns14900777:version="0"/><rect class="hoverBox" stroke="none" fill="white" width="20" height="20" x="40" y="180" ns14900777:version="0"/><rect class="hoverBox" stroke="none" fill="white" width="20" height="20" x="60" y="180" ns14900777:version="0"/><rect class="hoverBox" stroke="none" fill="white" width="20" height="20" x="80" y="180" ns14900777:version="0"/><rect class="hoverBox" stroke="none" fill="white" width="20" height="20" x="100" y="180" ns14900777:version="0"/><rect class="hoverBox" stroke="none" fill="white" width="20" height="20" x="120" y="180" ns14900777:version="0"/><rect class="hoverBox" stroke="none" fill="white" width="20" height="20" x="140" y="180" ns14900777:version="0"/><rect class="hoverBox" stroke="none" fill="white" width="20" height="20" x="160" y="180" ns14900777:version="0"/><rect class="hoverBox" stroke="none" fill="white" width="20" height="20" x="180" y="180" ns14900777:version="0"/><rect class="hoverBox" stroke="none" fill="white" width="20" height="20" x="200" y="180" ns14900777:version="0"/><rect class="hoverBox" stroke="none" fill="white" width="20" height="20" x="220" y="180" ns14900777:version="0"/><rect class="hoverBox" stroke="none" fill="white" width="20" height="20" x="240" y="180" ns14900777:version="0"/><rect class="hoverBox" stroke="none" fill="white" width="20" height="20" x="260" y="180" ns14900777:version="0"/><rect class="hoverBox" stroke="none" fill="white" width="20" height="20" x="280" y="180" ns14900777:version="0"/><rect class="hoverBox" stroke="none" fill="white" width="20" height="20" x="0" y="200" ns14900777:version="0"/><rect class="hoverBox" stroke="none" fill="white" width="20" height="20" x="20" y="200" ns14900777:version="0"/><rect class="hoverBox" stroke="none" fill="white" width="20" height="20" x="40" y="200" ns14900777:version="0"/><rect class="hoverBox" stroke="none" fill="white" width="20" height="20" x="60" y="200" ns14900777:version="0"/><rect class="hoverBox" stroke="none" fill="white" width="20" height="20" x="80" y="200" ns14900777:version="0"/><rect class="hoverBox" stroke="none" fill="white" width="20" height="20" x="100" y="200" ns14900777:version="0"/><rect class="hoverBox" stroke="none" fill="white" width="20" height="20" x="120" y="200" ns14900777:version="0"/><rect class="hoverBox" stroke="none" fill="white" width="20" height="20" x="140" y="200" ns14900777:version="0"/><rect class="hoverBox" stroke="none" fill="white" width="20" height="20" x="160" y="200" ns14900777:version="0"/><rect class="hoverBox" stroke="none" fill="white" width="20" height="20" x="180" y="200" ns14900777:version="0"/><rect class="hoverBox" stroke="none" fill="white" width="20" height="20" x="200" y="200" ns14900777:version="0"/><rect class="hoverBox" stroke="none" fill="white" width="20" height="20" x="220" y="200" ns14900777:version="0"/><rect class="hoverBox" stroke="none" fill="white" width="20" height="20" x="240" y="200" ns14900777:version="0"/><rect class="hoverBox" stroke="none" fill="white" width="20" height="20" x="260" y="200" ns14900777:version="0"/><rect class="hoverBox" stroke="none" fill="white" width="20" height="20" x="280" y="200" ns14900777:version="0"/><rect class="hoverBox" stroke="none" fill="white" width="20" height="20" x="0" y="220" ns14900777:version="0"/><rect class="hoverBox" stroke="none" fill="white" width="20" height="20" x="20" y="220" ns14900777:version="0"/><rect class="hoverBox" stroke="none" fill="white" width="20" height="20" x="40" y="220" ns14900777:version="0"/><rect class="hoverBox" stroke="none" fill="white" width="20" height="20" x="60" y="220" ns14900777:version="0"/><rect class="hoverBox" stroke="none" fill="white" width="20" height="20" x="80" y="220" ns14900777:version="0"/><rect class="hoverBox" stroke="none" fill="white" width="20" height="20" x="100" y="220" ns14900777:version="0"/><rect class="hoverBox" stroke="none" fill="white" width="20" height="20" x="120" y="220" ns14900777:version="0"/><rect class="hoverBox" stroke="none" fill="white" width="20" height="20" x="140" y="220" ns14900777:version="0"/><rect class="hoverBox" stroke="none" fill="white" width="20" height="20" x="160" y="220" ns14900777:version="0"/><rect class="hoverBox" stroke="none" fill="white" width="20" height="20" x="180" y="220" ns14900777:version="0"/><rect class="hoverBox" stroke="none" fill="white" width="20" height="20" x="200" y="220" ns14900777:version="0"/><rect class="hoverBox" stroke="none" fill="white" width="20" height="20" x="220" y="220" ns14900777:version="0"/><rect class="hoverBox" stroke="none" fill="white" width="20" height="20" x="240" y="220" ns14900777:version="0"/><rect class="hoverBox" stroke="none" fill="white" width="20" height="20" x="260" y="220" ns14900777:version="0"/><rect class="hoverBox" stroke="none" fill="white" width="20" height="20" x="280" y="220" ns14900777:version="0"/><rect class="hoverBox" stroke="none" fill="white" width="20" height="20" x="0" y="240" ns14900777:version="0"/><rect class="hoverBox" stroke="none" fill="white" width="20" height="20" x="20" y="240" ns14900777:version="0"/><rect class="hoverBox" stroke="none" fill="white" width="20" height="20" x="40" y="240" ns14900777:version="0"/><rect class="hoverBox" stroke="none" fill="white" width="20" height="20" x="60" y="240" ns14900777:version="0"/><rect class="hoverBox" stroke="none" fill="white" width="20" height="20" x="80" y="240" ns14900777:version="0"/><rect class="hoverBox" stroke="none" fill="white" width="20" height="20" x="100" y="240" ns14900777:version="0"/><rect class="hoverBox" stroke="none" fill="white" width="20" height="20" x="120" y="240" ns14900777:version="0"/><rect class="hoverBox" stroke="none" fill="white" width="20" height="20" x="140" y="240" ns14900777:version="0"/><rect class="hoverBox" stroke="none" fill="white" width="20" height="20" x="160" y="240" ns14900777:version="0"/><rect class="hoverBox" stroke="none" fill="white" width="20" height="20" x="180" y="240" ns14900777:version="0"/><rect class="hoverBox" stroke="none" fill="white" width="20" height="20" x="200" y="240" ns14900777:version="0"/><rect class="hoverBox" stroke="none" fill="white" width="20" height="20" x="220" y="240" ns14900777:version="0"/><rect class="hoverBox" stroke="none" fill="white" width="20" height="20" x="240" y="240" ns14900777:version="0"/><rect class="hoverBox" stroke="none" fill="white" width="20" height="20" x="260" y="240" ns14900777:version="0"/><rect class="hoverBox" stroke="none" fill="white" width="20" height="20" x="280" y="240" ns14900777:version="0"/><rect class="hoverBox" stroke="none" fill="white" width="20" height="20" x="0" y="260" ns14900777:version="0"/><rect class="hoverBox" stroke="none" fill="white" width="20" height="20" x="20" y="260" ns14900777:version="0"/><rect class="hoverBox" stroke="none" fill="white" width="20" height="20" x="40" y="260" ns14900777:version="0"/><rect class="hoverBox" stroke="none" fill="white" width="20" height="20" x="60" y="260" ns14900777:version="0"/><rect class="hoverBox" stroke="none" fill="white" width="20" height="20" x="80" y="260" ns14900777:version="0"/><rect class="hoverBox" stroke="none" fill="white" width="20" height="20" x="100" y="260" ns14900777:version="0"/><rect class="hoverBox" stroke="none" fill="white" width="20" height="20" x="120" y="260" ns14900777:version="0"/><rect class="hoverBox" stroke="none" fill="white" width="20" height="20" x="140" y="260" ns14900777:version="0"/><rect class="hoverBox" stroke="none" fill="white" width="20" height="20" x="160" y="260" ns14900777:version="0"/><rect class="hoverBox" stroke="none" fill="white" width="20" height="20" x="180" y="260" ns14900777:version="0"/><rect class="hoverBox" stroke="none" fill="white" width="20" height="20" x="200" y="260" ns14900777:version="0"/><rect class="hoverBox" stroke="none" fill="white" width="20" height="20" x="220" y="260" ns14900777:version="0"/><rect class="hoverBox" stroke="none" fill="white" width="20" height="20" x="240" y="260" ns14900777:version="0"/><rect class="hoverBox" stroke="none" fill="white" width="20" height="20" x="260" y="260" ns14900777:version="0"/><rect class="hoverBox" stroke="none" fill="white" width="20" height="20" x="280" y="260" ns14900777:version="0"/><rect class="hoverBox" stroke="none" fill="white" width="20" height="20" x="0" y="280" ns14900777:version="0"/><rect class="hoverBox" stroke="none" fill="white" width="20" height="20" x="20" y="280" ns14900777:version="0"/><rect class="hoverBox" stroke="none" fill="white" width="20" height="20" x="40" y="280" ns14900777:version="0"/><rect class="hoverBox" stroke="none" fill="white" width="20" height="20" x="60" y="280" ns14900777:version="0"/><rect class="hoverBox" stroke="none" fill="white" width="20" height="20" x="80" y="280" ns14900777:version="0"/><rect class="hoverBox" stroke="none" fill="white" width="20" height="20" x="100" y="280" ns14900777:version="0"/><rect class="hoverBox" stroke="none" fill="white" width="20" height="20" x="120" y="280" ns14900777:version="0"/><rect class="hoverBox" stroke="none" fill="white" width="20" height="20" x="140" y="280" ns14900777:version="0"/><rect class="hoverBox" stroke="none" fill="white" width="20" height="20" x="160" y="280" ns14900777:version="0"/><rect class="hoverBox" stroke="none" fill="white" width="20" height="20" x="180" y="280" ns14900777:version="0"/><rect class="hoverBox" stroke="none" fill="white" width="20" height="20" x="200" y="280" ns14900777:version="0"/><rect class="hoverBox" stroke="none" fill="white" width="20" height="20" x="220" y="280" ns14900777:version="0"/><rect class="hoverBox" stroke="none" fill="white" width="20" height="20" x="240" y="280" ns14900777:version="0"/><rect class="hoverBox" stroke="none" fill="white" width="20" height="20" x="260" y="280" ns14900777:version="0"/><rect class="hoverBox" stroke="none" fill="white" width="20" height="20" x="280" y="280" ns14900777:version="0"/></svg>